<?xml version="1.0" standalone="no"?>
<!DOCTYPE svg PUBLIC "-//W3C//DTD SVG 20010904//EN"
 "http://www.w3.org/TR/2001/REC-SVG-20010904/DTD/svg10.dtd">
<svg version="1.0" xmlns="http://www.w3.org/2000/svg"
 width="200.000000pt" height="200.000000pt" viewBox="0 0 200.000000 200.000000"
 preserveAspectRatio="xMidYMid meet">
<metadata>
Created by potrace 1.10, written by Peter Selinger 2001-2011
</metadata>
<g transform="translate(0.000000,200.000000) scale(0.100000,-0.100000)"
fill="#000000" stroke="none">
<path d="M863 1787 c-46 -11 -55 -18 -86 -62 -65 -96 -174 -158 -299 -171 -59
-6 -65 -9 -97 -50 -55 -68 -101 -147 -126 -215 l-22 -63 31 -65 c28 -59 31
-75 31 -161 0 -86 -3 -102 -31 -161 l-31 -65 22 -63 c25 -68 71 -147 126 -215
32 -41 38 -44 97 -50 125 -13 234 -75 299 -171 31 -44 40 -51 86 -62 67 -14
207 -14 274 0 46 11 55 18 86 62 65 96 178 160 301 172 57 5 63 8 95 49 55 68
101 147 126 215 l22 63 -31 65 c-28 59 -31 75 -31 161 0 86 3 102 31 161 l31
65 -22 63 c-25 68 -71 147 -126 215 -32 41 -38 44 -97 50 -125 13 -234 75
-299 171 -31 44 -40 51 -86 62 -29 6 -90 11 -137 11 -47 0 -108 -5 -137 -11z
m247 -121 c138 -91 106 -311 -53 -355 -155 -44 -290 91 -248 247 14 51 75 117
123 131 53 16 135 6 178 -23z m-465 -235 c68 -30 125 -113 125 -181 0 -37 -24
-94 -53 -127 -124 -141 -347 -60 -347 127 0 145 145 241 275 181z m863 4 c75
-32 122 -102 122 -182 -1 -189 -222 -272 -347 -130 -29 33 -53 90 -53 127 0
37 24 94 53 127 59 67 148 90 225 58z m-459 -349 c67 -35 65 -143 -4 -174 -91
-41 -179 51 -131 137 26 47 84 63 135 37z m-411 -152 c130 -54 169 -208 79
-311 -124 -141 -347 -60 -347 127 0 142 140 238 268 184z m870 1 c163 -69 163
-301 0 -370 -77 -32 -166 -9 -225 58 -29 33 -53 90 -53 127 0 37 24 94 53 127
59 67 148 90 225 58z m-398 -269 c138 -91 106 -311 -53 -355 -155 -44 -290 91
-248 247 14 51 75 117 123 131 53 16 135 6 178 -23z"/>
</g>
</svg>
