<?xml version="1.0" standalone="no"?>
<!DOCTYPE svg PUBLIC "-//W3C//DTD SVG 20010904//EN"
 "http://www.w3.org/TR/2001/REC-SVG-20010904/DTD/svg10.dtd">
<svg version="1.0" xmlns="http://www.w3.org/2000/svg"
 width="200.000000pt" height="200.000000pt" viewBox="0 0 200.000000 200.000000"
 preserveAspectRatio="xMidYMid meet">
<metadata>
Created by potrace 1.10, written by Peter Selinger 2001-2011
</metadata>
<g transform="translate(0.000000,200.000000) scale(0.100000,-0.100000)"
fill="#000000" stroke="none">
<path d="M863 1787 c-46 -11 -55 -18 -86 -62 -64 -95 -176 -159 -300 -172 -48
-5 -66 -12 -84 -32 -44 -50 -105 -151 -133 -221 l-29 -70 32 -67 c29 -62 32
-77 32 -163 0 -86 -3 -101 -32 -163 l-32 -67 29 -70 c28 -70 89 -171 133 -221
18 -20 36 -27 84 -32 124 -13 236 -77 300 -172 31 -44 40 -51 86 -62 67 -14
207 -14 274 0 46 11 55 18 86 62 65 96 178 160 301 172 57 5 63 8 95 49 55 68
101 147 126 215 l22 63 -30 64 c-51 110 -48 231 8 344 l24 48 -28 70 c-29 70
-90 171 -134 221 -18 20 -36 27 -84 32 -124 13 -236 77 -300 172 -31 44 -40
51 -86 62 -29 6 -90 11 -137 11 -47 0 -108 -5 -137 -11z m281 -35 c15 -4 42
-28 64 -57 74 -97 187 -161 306 -172 56 -6 59 -8 103 -62 44 -56 96 -153 108
-204 5 -19 -1 -48 -21 -94 -24 -58 -28 -82 -28 -163 0 -82 4 -105 29 -164 l28
-69 -17 -51 c-21 -60 -94 -182 -128 -212 -15 -14 -43 -24 -81 -28 -113 -12
-220 -73 -293 -167 -56 -70 -81 -78 -229 -74 -143 4 -153 8 -201 74 -65 90
-177 155 -291 167 -43 5 -65 13 -86 33 -34 31 -98 137 -126 209 l-20 51 29 63
c27 57 30 72 30 168 0 96 -3 111 -30 168 l-30 64 30 71 c16 40 54 104 82 142
l53 70 60 7 c74 8 135 30 195 68 41 27 68 54 132 133 19 23 35 29 88 37 67 9
196 5 244 -8z"/>
<path d="M913 1711 c-45 -21 -96 -69 -121 -116 -23 -42 -22 -150 2 -195 26
-48 90 -106 132 -120 95 -32 206 8 261 92 25 37 28 50 28 129 0 82 -2 90 -31
131 -63 87 -179 120 -271 79z m199 -47 c23 -16 52 -49 66 -74 50 -93 10 -215
-88 -268 -38 -20 -55 -23 -104 -19 -202 18 -255 279 -76 375 63 33 143 28 202
-14z"/>
<path d="M490 1467 c-43 -14 -114 -84 -135 -133 -45 -109 16 -252 127 -298 51
-22 131 -20 176 3 85 44 132 122 132 219 0 47 -5 67 -29 103 -15 24 -39 54
-52 66 -54 49 -140 65 -219 40z m155 -36 c68 -30 125 -113 125 -181 0 -37 -24
-94 -53 -127 -124 -141 -347 -60 -347 127 0 145 145 241 275 181z"/>
<path d="M1350 1464 c-149 -65 -188 -258 -75 -377 40 -42 98 -67 155 -67 123
0 214 87 227 216 10 96 -63 205 -156 233 -52 15 -109 13 -151 -5z m158 -29
c163 -69 163 -301 0 -370 -137 -57 -298 70 -273 215 21 123 159 202 273 155z"/>
<path d="M932 1104 c-36 -29 -62 -72 -62 -104 0 -11 9 -39 20 -60 33 -65 102
-87 169 -54 40 20 61 61 61 120 0 41 -5 51 -39 85 -49 49 -98 53 -149 13z
m117 -18 c67 -35 65 -143 -4 -174 -91 -41 -179 51 -131 137 26 47 84 63 135
37z"/>
<path d="M475 959 c-120 -60 -169 -193 -111 -308 75 -148 252 -177 362 -59 49
51 64 90 64 161 0 52 -5 71 -29 108 -15 24 -39 54 -52 66 -59 54 -162 68 -234
32z m170 -28 c68 -30 125 -113 125 -181 0 -37 -24 -94 -53 -127 -124 -141
-347 -60 -347 127 0 145 145 241 275 181z"/>
<path d="M1350 964 c-85 -37 -140 -120 -140 -214 0 -70 21 -119 72 -166 48
-46 90 -64 148 -64 94 0 164 46 206 135 32 67 31 127 -2 193 -55 111 -179 161
-284 116z m158 -29 c163 -69 163 -301 0 -370 -77 -32 -166 -9 -225 58 -29 33
-53 90 -53 127 0 37 24 94 53 127 59 67 148 90 225 58z"/>
<path d="M913 711 c-88 -40 -137 -116 -138 -212 0 -56 4 -73 30 -114 17 -27
50 -63 74 -80 39 -27 50 -30 120 -30 68 0 83 3 119 28 23 15 54 46 69 69 25
37 28 50 28 129 0 82 -2 90 -31 131 -63 87 -179 120 -271 79z m199 -47 c23
-16 52 -49 66 -74 20 -38 23 -55 19 -104 -18 -202 -279 -255 -375 -76 -50 95
-11 215 88 268 63 33 143 28 202 -14z"/>
</g>
</svg>
